<?xml version="1.0" encoding="utf-8"?>
<!-- Generator: Adobe Illustrator 19.0.0, SVG Export Plug-In . SVG Version: 6.00 Build 0)  -->
<svg version="1.1" id="Layer_1" xmlns="http://www.w3.org/2000/svg" xmlns:xlink="http://www.w3.org/1999/xlink" x="0px" y="0px"
	 viewBox="0 0 800 880" style="enable-background:new 0 0 800 880;" xml:space="preserve">
<g id="XMLID_2_">
	<path id="XMLID_4_" d="M496,614.4C496,614.4,496,614.4,496,614.4c0,0.1,0,0.1,0,0.1C496,614.4,496,614.4,496,614.4z"/>
	<path id="XMLID_12_" d="M422,589.1c0-4.3,0.4-8.6,1-12.9c3.8,5.4,7.7,10.3,10.3,13.3c-4.1,6.9-7.5,14.1-9,22.1
		c-0.6-3.6-1.2-7.2-1.6-10.8c0-0.1,0-0.2,0-0.4C422.3,596.7,422,592.9,422,589.1z"/>
	<path id="XMLID_18_" d="M127,348.8c4.3,7.8,9.4,15.1,14.4,22.5c3,4.5,6.8,8.5,9.7,13c3.4,5.4,8.1,8.8,14,10.6
		c5.6,1.7,9.9,4.7,13.4,9.6c9.8,13.5,19.8,26.8,30.2,39.7c3.7,4.6,4.9,9.6,5.8,15c1.1,6.1,2.3,12.1,3.6,18.1
		c4.6,21.5,17.6,38.5,30.7,55.3c1.5,2,3,4,4.8,5.8c6.4,6.2,5.2,14.4,4.3,21.6c-1.5,12.1-4.6,24.1-7.4,36.1c-0.4,1.6-2.9,3.2-4.8,3.8
		c-11.5,3.7-21.5,8.9-26.3,20.9c-4.8,12.1,0.5,20.5,13.4,21.5c1.3,0.1,3.6,1,3.8,1.8c2.3,10.9,9.7,14.7,20,14.7c7,0,13.9,0,20.9,0.2
		c4.3,0.2,8.6,1.1,12.8,1.3c3.7,0.2,7.4,0.6,11.1,0.6c0.5-8.8,0.1-17.7-0.3-26.6c-16-9.7-26.6-31.1-29.5-49.5
		c15.4,10.8,24,24.3,29,41c-0.3-5.1-0.5-10.1-0.5-15.1c0-4.8,0.1-9.6,0.3-14.3c-25.1-24.3-22.4-26.3-31.3-55.7
		c17.3,11.5,27.8,31.1,31.6,49.1c0.6-10.9,1.4-21.8,1.8-32.6c-24.1-18.4-38.3-42.9-38-61c24.5,20.3,30.7,39.5,38.1,58.2
		c0.2-6.6,0.3-13.1,0.2-19.7c-10.3-23.6-11.2-46.7,0.6-71.3c1.6,19.4,11.6,38,7.7,57.8c-0.4,4.3-2.5,10.3-4.1,14.7
		c0.1,4.2,0,8.5-0.1,12.7c3.8-14.1,25.3-40.8,39.4-45c-3.7,15.4-11.6,37.5-39.6,48.8c-0.4,11-1.3,22.1-1.9,33.1
		c6.6-13.6,22.6-25,33.1-32.4c4,19.8-17.3,38.4-33.7,44.7c-0.2,5.3-0.2,10.6,0,15.9c0.2,6.8,0.7,13.9,1.1,21
		c4.9-14.9,19.2-28.2,34.5-35.1c-3.1,24.9-16.8,32-34.1,44.7c0.2,5.6,0.2,11.2-0.2,16.7c0.5,0,1-0.1,1.5-0.1
		c8.6-1.1,15.1-4.7,20.2-13.1c9.4-15.4,20.8-29.7,31.5-44.3c0.9-1.2,3.6-2.5,4.8-2c14.9,5.6,29.7,11.6,44.6,17.5
		c-2.9,5.6-3.7,11.7-1.6,18c1.7,5.2,5.5,9.4,10.8,8.9c3-0.3,6-0.3,8.9-0.2c-0.2-10.7-2.2-21.3-4.1-31.9c-0.7-4.1-1.3-8.2-1.8-12.4
		c-5.5-11.3-12.9-20.5-22-28.2c0,0-0.1,0-0.1,0c-5.6-0.1-12,1.1-16.3,4.9c0,0.1,0,0.2,0,0.4c0,0.5-0.2,1-0.4,1.5
		c-1.8,3.8-9.1,3.5-11.3,0.1c-2.7-4.2-1.5-10.3,4.5-10c2.8,0.1,5.6,2.6,6.7,5.4c3.9-3,8.9-4.1,13.7-4.6c0.1,0,0.2,0,0.3,0
		c-4.8-3.8-9.9-7.1-15.4-10.1c-1.9,1.9-5.4,2.4-8,0.4c-9.4-6.2,6.3-18.6,9.3-5.2c0.2,1,0.2,1.9,0,2.7c5,2.7,9.8,5.8,14.2,9.1
		c-0.9-1.9-1.7-3.8-2.5-5.7c-1.4-3.3-2.9-6.5-4.5-9.7c-4.2,0.7-8.1-3.6-7-8.4c1.4-5.8,11.4-6.1,12.2,0.3c0.3,2.1,0,4.5-1.5,6.1
		c0,0-0.1,0.1-0.1,0.1c-0.4,0.4-0.9,0.8-1.3,1c2.2,4.4,4.1,8.9,6.1,13.3c0.8,1.7,2.7,4.1,2.8,6.2c8,6.8,14.9,14.8,20.2,24.2
		c-0.1-1.3-0.2-2.6-0.2-4c-0.2-6,0.5-11.8,1.4-17.7c-5.8-8.5-10.8-17.5-10.3-21.7c0.9-10.5,8.8-6.9,14.1-1.7
		c0.4-2.1,0.8-4.2,1.2-6.3c-0.2-0.1-0.3-0.2-0.4-0.4c-6.9-10.7-12.9-21.7-22.5-30.3c-6.7-6-13.8-11.6-19.8-18.3l0.2,0.6
		c-0.2-0.4-0.4-0.8-0.7-1.1c-1.6-1.8-3.1-3.7-4.5-5.7c-0.1-0.2-0.2-0.3-0.2-0.5c-8.9-9.7-21.9-17.3-23.4-32.1
		c-2.2-15,8.9-16,14.3-3.2c4.6,10.3,6.6,19.5,11.8,33.8l0.7,2.4c6.9,9.1,16.2,16.1,24.6,23.7c8.7,7.9,14.2,18.2,20.5,28
		c1.6-7.5,3.8-14.8,7-22c3.6-8.1,7.4-16.1,9.6-24.7c0.2-0.8,0.3-1.8,0.4-2.7c-0.4-0.2-0.6-0.7-0.5-1.3c0.2-0.7,0.3-1.4,0.5-2
		c-0.1-2.4-0.6-4.9-1.3-7.1c-7.3-9.4-22.4-20.6-26.1-30.9c-4.8-12.4,6-12.8,13-5.9c13.3,13.7,13.3,21.4,13.8,32.2
		c0.9,1.6,1.6,3.3,2.1,5.1c1.5-7.7,2.6-15.4,3.8-23.2c-3.4-11.2-9.7-45.2-0.2-51.5c9.8-6.2,13.3,11.5,13.2,18.1
		c-0.7,10.3-7.1,16.5-9.1,26.7l-0.8,2.1c-2,11.9-3.3,23.8-6.2,35.5c-0.3,6-2.2,12.2-4.2,17.3c-0.2,0.4-0.4,0.9-0.5,1.3
		c3.8-2.1,8.5-2.6,12.8-2.7c9-0.1,15.3-1.4,22.5-6.3c-0.1-0.2-0.2-0.4-0.3-0.6c-2-4.7,2.1-9,7-8.5c4.2,0.5,6.4,6.1,4.8,9.7
		c-0.4,0.8-0.8,1.5-1.4,1.9c-2.3,2.1-6.1,1.4-8.5-0.8c-3.3,2.4-6.8,4.5-10.7,5.7c6.5,2.6,12.3,5.9,19.6,4.2
		c1.7-4.9,8.8-7.8,12.6-2.1c3.7,5.5-0.9,10.9-5.7,11.2c-2.4,0.2-4.8-0.8-6.3-3.6c-0.6-1-0.9-2-0.9-3c-8.6,1.6-15-3.1-23.4-5.7
		c-0.1,0-0.2-0.1-0.3-0.1c-7.8,0.7-17.9-1.4-23.7,5.1c-2.7,6.2-5.7,12.3-8,18.8c-2.4,6.7-3.5,14-4.5,21.1c0.9,1.1,1.6,2.1,2.1,3.1
		c4.1,8.7,3.4,21.8,5.9,31l0.1,0.9c3.6-5.8,7.5-11.4,11.2-17.3c2.5-14,3.1-43,20.3-45.2c28-2.8-5,30.8-9.4,36.8l-7.5,7.4
		c-4.6,7.5-9.8,14.7-14.2,22.2l0.1,0.7c-0.1-0.1-0.2-0.2-0.3-0.3c-4.9,8.4-8.7,17.3-9.1,27.6c3.1-5.3,6.8-10.4,11-15l0.5-1.3
		c5.1-9.9,9.7-17.5,19.5-22.4c8-3.8,27.2-5.2,22.3,9.5c-4.9,14.3-31.2,11.1-42.5,18c-4.1,4.7-7.6,9.9-10.4,15.4
		c1.2,7.5,2.3,15.1,2.4,22.6c10.1,0.7,20,3.1,30.2,3.2c9.9,0.2,19.8,0.4,29.7,0.6c-2-2.6-3.8-5.7-5.2-8.5c-0.8-1.5-2.3-4-0.6-5.3
		c1.7-1.3,3.4,0.5,4.4,1.8c3.2,4.1,4.2,7.9,5.6,12c0.3,0,0.6,0,1,0c-0.1-2.9-0.2-5.8-0.4-8.6c-5.1-6.2-13-17.2-9.6-19.7
		c2.9-0.8,4.3,3.8,4.9,5.8c1,3.6,2.6,7.4,4.6,10.7c-0.1-1.2-0.1-2.3-0.2-3.5c-0.1-2.2-0.1-4.3-0.1-6.4c-1.6-2.9-3-5.8-4.5-8.8
		c-1.1-2.2-2.8-4.8-2.9-7.3c-0.1-1,0.5-2.2,1.5-2.5c3.5-1,5.3,6.8,6.1,13c0.4-4,1-7.9,2-11.8c-0.4-1.8-1.7-4.3-2.2-5.5
		c-1.2-2.8-3.3-5.3-4-8.3c-0.5-2.2-0.3-4.7,1.6-6.1c3.9-2.9,5.4,10.1,5.8,15.6c1.1-3.7,2.5-7.3,4.1-10.9c-0.1-3.2-0.8-6.4-2.2-9.3
		c-1-2.2-3.4-12.4,2-9.1c2,1.2,3.2,3,3.4,5.2c0.2,2.3,0.1,4.6-0.1,6.9c0.9-1.8,1.9-3.5,2.9-5.2c0.3-1.1,0.8-2.6,0.9-4
		c0.3-2.1,1.9-5.2,2.6-7.2c1.4-3.5,2.4-4.5,5.2-7.1c2.1-2,3.3-0.2,2.6,2.3c-0.8,2.6-3.2,4.4-3.9,7.2c1.8-1.5,3.2-3.9,4.9-5.6
		c1.4-1.4,4.1-5,5.2-2.6c0.8,1.7,0.2,5.2-1.1,6.2c-4.7,3.6-8.8,5-14.4,10.4c-4.2,6.7-7.8,13.8-10.2,21.4c-0.2,0.7-0.5,1.5-0.7,2.2
		c0.6-0.8,1.2-1.6,1.6-2.2c1.1-1.6,3.2-6.3,5.2-6.9c1.6-0.5,2.7,1.4,2.7,2.8c-0.1,3-3.6,5.8-5.7,7.6c-1.2,1-2.6,1.9-3.6,3
		c-0.7,0.8-1.2,1.9-1.7,2.8c0,0.1,0,0.1,0,0.2l-0.1,0.1c-0.7,4.2-1.1,8.5-1.2,12.8c0.5-1.9,1-3.7,1.5-5.3c0.5-1.8,1.2-4.8,2.9-5.9
		c2.9-1.9,1.6,3.2,1.2,4.4c-0.7,2.3-1.5,4.8-2.4,7.1c1-1.6,2.2-3,2.9-4.6c0.6-1.3,2.2-4.3,3.3-1.2c0.9,2.7-3,7.6-4.3,9.8
		c-1.4,2.4-3.4,4.4-4.8,6.8c0,0.6,0.1,1.3,0.1,1.9c0.1,0.2,0.2,0.3,0.3,0.5l-0.3,0.7c0.1,2.7,0.2,5.5,0.3,8.2c0.9,0,1.8,0,2.6,0
		c0.2-0.9,0.6-1.8,1-2.6c0.2-0.3,3.1-3.6,3.5-2.2c0.5,1.6,0.6,3.2,0.5,4.9c8.4,0.1,16.8,0.2,25.2,0.1c8,0,16.1-0.3,24.1-0.6
		c2.9-5.6,6-10.9,9-16.4c-12.3,1.7-28.6-8.1-27.9-28.6c13.8,2.3,27.2,13.5,29.1,26.3c2.7-5,5.1-10.1,7-15.6
		c1.2-3.4,2.1-6.9,2.9-10.3c-14.3,4.8-33.9-12.2-37.2-27.1c14.1,1.4,33.2,8.8,38.3,21.7c1.3-7.6,1.9-15.3,1.8-23
		c-9.8,3-31.4-14.5-33.5-30.1c14.1,5.2,31.4,9.9,33.4,25.7c-0.1-3.7-0.4-7.5-0.8-11.2c-0.8-7.6-2.2-15.2-3.9-22.6
		c-2.7,3.6-9.2,4.4-13.3,4.5c-10.8,0.5-19.1-4.3-27-10.8c7.4-6.8,17.5-9,25-7.4c6.9,1.8,11.4,4.9,14.8,11.1
		c-2.8-11.3-6.6-22.3-10.9-33.2c-11,11.2-29.3,11.1-41.9,1.1c5.3-8,15.7-9.8,22.9-10c6.8-0.2,12.1,2.5,17.8,5.7
		c-2.5-6.2-5.2-12.3-8-18.3c-21.8-7.8-20.5-29.3-13.4-43.1c6.8,7.4,13.4,15.4,15.4,26.1c0.5,4.2-0.3,10.5-0.6,14.7
		c3.1,6.7,6,13.4,8.8,20.2c0.1-17.9,14.5-30,28-38.4c-2.7,17.6-8.4,38.9-26.7,41.6c4.4,11.3,8.2,22.8,11.1,34.6
		c-2.8-15,18.7-31.2,31.1-31.6c-5.7,13.9-12.8,32.9-30.1,33.6l-0.6-0.3c0,0,0,0,0,0c1.6,6.7,2.9,13.5,3.8,20.5
		c0.5,3.7,0.8,7.5,1,11.2c0.1-0.1,0.1-0.1,0.2-0.2c-0.5-16.4,16.3-27.6,29.6-36.3l0.6,0.3c-2.6,8.1-17.4,50.8-29.6,40.9
		c-0.3-1.2-0.5-2.4-0.5-3.6c-0.1,0-0.1,0.1-0.2,0.1c0.6,13.7-0.9,27.5-4.6,40.8c-0.4,1.4-0.8,2.8-1.3,4.1
		c6.3-10.7,16.6-20.5,39.7-16.1c-6.2,15-22.8,34.9-44.7,27.8c-3.7,7.3-7.9,14.2-11.7,21.5c9.1-0.4,18.2-0.9,27.3-1.3
		c2-0.1,3.9-0.7,5.9-1.1c8.6-1.6,15.3-5.2,16.6-15c0.3-2.1,1.5-4.1,2.4-6c1.9-4.1,4.4-6.6,9.6-7.3c17.3-2.3,32.1-9.6,41.8-24.9
		c2.9-4.6,6.5-8.8,9-13.6c2-3.9,3.5-8.3,4-12.6c1.2-9.7,1.6-19.5,2.5-29.3c0.6-7-0.4-13.5-4.9-19.3c-1-1.3-0.9-3.6-0.9-5.4
		c-0.2-8.6,0.3-17.2-0.5-25.8c-0.7-7.7-5.2-13.9-10.9-19.1c-7.4-6.9-15.2-7.5-23.5-1.8c-1.1,0.7-2.1,1.4-3.1,2.1
		c-4.1-10.3-7.7-20.7-12.3-30.6C601.2,401.7,573.4,377,536,363c-33.8-12.6-68.6-16.1-104.1-11.1c-26.6,3.8-53,9.2-79.5,13.7
		c-2.8,0.5-5.6,0.6-8.4,0.4c-9.6-0.6-13.7-5.6-13.7-15.2c-0.1-11.9-0.1-24-1.7-35.8c-0.9-6.7-4.9-12.9-7.7-19.3
		c-1-2.2-1.2-3.3,1.3-4.6c14.1-6.9,24.7-17.6,33.7-30.4c14.6-20.9,25.2-43.8,32.5-68.1c2.7-8.9,1.3-18-6.4-24.1
		c-7.3-5.8-15.8-7.4-24.7-2.9c-8.6,4.3-17.3,8.5-26.4,13c0-4.8,0.7-9.4-0.1-13.8c-2.4-12.4-10.7-16.8-22.5-12.1
		c-14.6,5.9-26.1,16.1-35.1,28.8c-10.1,14.2-19.2,29.1-28.9,43.7c-2.3,3.5-5,6.7-7.4,10.1c-7.3,10.4-16.5,17-29.1,20.8
		c-25.1,7.6-47,21.1-63.1,42.5c-8.9,11.8-15.2,25-18.5,39.4C125.1,341.5,125.4,345.9,127,348.8z M480.4,464.4
		c5.6-1.8,15.8-2.4,14.4,5.5c-2,8.9-37.9,20.9-44,23.7l3.5-5.5C460.2,477.8,468.8,467.6,480.4,464.4z M392.7,482.3
		c0.6-6.8,4.1-11.6,9-4.3c3.8,5.7,3.8,21.8,4.9,29.2l-0.1,5.1C398.9,506.7,391.9,491.3,392.7,482.3z M382.9,504.2
		c9.7,3,19.9,8.9,26.4,16.9l9.3,11.4c-3.4-3.7-7.8-8-12.2-11c-9.7-5.7-20.5-2.6-30.5-6.4C362.3,509.5,371.4,500.9,382.9,504.2z"/>
</g>
</svg>
